# MagicaVoxel @ Ephtracy

# group
o 

# material
mtllib tile.mtl
usemtl palette

# normals
vn -1 0 0
vn 1 0 0
vn 0 0 1
vn 0 0 -1
vn 0 -1 0
vn 0 1 0

# texcoords
vt 0.369141 0.5
vt 0.607422 0.5
vt 0.630859 0.5
vt 0.654297 0.5

# verts
v -0.5 0 0.5
v -0.5 0 -0.5
v -0.5 0.7 0.5
v -0.5 0.7 0.4
v -0.5 0.7 0.2
v -0.5 0.7 0.1
v -0.5 0.7 0
v -0.5 0.7 -0.1
v -0.5 0.7 -0.2
v -0.5 0.7 -0.4
v -0.5 0.7 -0.5
v -0.5 0.8 0.4
v -0.5 0.8 0.3
v -0.5 0.8 0.2
v -0.5 0.8 0.1
v -0.5 0.8 0
v -0.5 0.8 -0.2
v -0.5 0.8 -0.4
v -0.5 0.9 0.3
v -0.5 0.9 0.1
v -0.5 0.9 -0.1
v -0.5 0.9 -0.2
v -0.5 0.9 -0.3
v -0.5 0.9 -0.4
v -0.5 1 0.5
v -0.5 1 -0.3
v -0.5 1 -0.4
v -0.5 1 -0.5
v 0.5 0 0.5
v 0.5 0 -0.5
v 0.5 0.6 0.5
v 0.5 0.6 0.4
v 0.5 0.6 0.1
v 0.5 0.6 0
v 0.5 0.6 -0.2
v 0.5 0.6 -0.3
v 0.5 0.7 0.5
v 0.5 0.7 0.4
v 0.5 0.7 0.1
v 0.5 0.7 0
v 0.5 0.7 -0.1
v 0.5 0.7 -0.2
v 0.5 0.8 0.3
v 0.5 0.8 0.1
v 0.5 0.8 -0.1
v 0.5 0.8 -0.2
v 0.5 0.8 -0.3
v 0.5 0.8 -0.4
v 0.5 0.8 -0.5
v 0.5 0.9 0.5
v 0.5 0.9 0.4
v 0.5 0.9 0.3
v 0.5 0.9 0.1
v 0.5 0.9 0
v 0.5 0.9 -0.2
v 0.5 0.9 -0.4
v 0.5 0.9 -0.5
v 0.5 1 0.5
v 0.5 1 0
v 0.5 1 -0.2
v 0.5 1 -0.5
v -0.5 0 0.5
v -0.5 0.7 0.5
v -0.5 1 0.5
v -0.4 0.7 0.5
v -0.4 0.8 0.5
v -0.4 0.9 0.5
v -0.4 1 0.5
v -0.3 0.7 0.5
v -0.3 0.8 0.5
v -0.3 0.9 0.5
v -0.3 1 0.5
v -0.2 0.7 0.5
v -0.2 0.8 0.5
v -0.2 0.9 0.5
v -0.1 0.8 0.5
v -0.1 0.9 0.5
v 0 0.7 0.5
v 0 0.9 0.5
v 0.1 0.7 0.5
v 0.1 0.8 0.5
v 0.1 0.9 0.5
v 0.2 0.7 0.5
v 0.2 0.8 0.5
v 0.3 0.6 0.5
v 0.3 0.7 0.5
v 0.3 0.8 0.5
v 0.3 0.9 0.5
v 0.4 0.7 0.5
v 0.4 0.9 0.5
v 0.5 0 0.5
v 0.5 0.6 0.5
v 0.5 0.7 0.5
v 0.5 0.9 0.5
v 0.5 1 0.5
v -0.5 0 -0.5
v -0.5 0.7 -0.5
v -0.5 1 -0.5
v -0.4 0.8 -0.5
v -0.4 0.9 -0.5
v -0.3 0.7 -0.5
v -0.3 0.8 -0.5
v -0.2 0.8 -0.5
v -0.2 0.9 -0.5
v -0.1 0.7 -0.5
v -0.1 0.8 -0.5
v 0 0.7 -0.5
v 0 0.8 -0.5
v 0.1 0.7 -0.5
v 0.1 0.8 -0.5
v 0.1 0.9 -0.5
v 0.2 0.6 -0.5
v 0.2 0.8 -0.5
v 0.2 0.9 -0.5
v 0.3 0.6 -0.5
v 0.3 0.7 -0.5
v 0.4 0.7 -0.5
v 0.4 0.8 -0.5
v 0.4 0.9 -0.5
v 0.5 0 -0.5
v 0.5 0.8 -0.5
v 0.5 0.9 -0.5
v 0.5 1 -0.5
v -0.5 0 0.5
v 0.5 0 0.5
v -0.5 0 -0.5
v 0.5 0 -0.5
v -0.5 1 0.5
v -0.4 1 0.5
v -0.3 1 0.5
v 0.5 1 0.5
v -0.3 1 0.4
v 0 1 0.4
v 0.3 1 0.4
v 0.4 1 0.4
v -0.4 1 0.3
v 0 1 0.3
v 0.1 1 0.3
v 0.2 1 0.3
v -0.4 1 0.2
v -0.3 1 0.2
v -0.2 1 0.2
v 0.1 1 0.2
v -0.2 1 0.1
v 0.1 1 0.1
v 0.3 1 0.1
v 0.4 1 0.1
v -0.4 1 0
v -0.3 1 0
v 0 1 0
v 0.1 1 0
v 0.2 1 0
v 0.3 1 0
v 0.4 1 0
v 0.5 1 0
v -0.3 1 -0.1
v -0.2 1 -0.1
v 0 1 -0.1
v 0.1 1 -0.1
v 0.2 1 -0.1
v 0.3 1 -0.1
v 0.1 1 -0.2
v 0.2 1 -0.2
v 0.3 1 -0.2
v 0.4 1 -0.2
v 0.5 1 -0.2
v -0.5 1 -0.3
v -0.4 1 -0.3
v -0.1 1 -0.3
v 0.3 1 -0.3
v 0.4 1 -0.3
v -0.5 1 -0.4
v -0.4 1 -0.4
v -0.3 1 -0.4
v -0.2 1 -0.4
v -0.1 1 -0.4
v 0.3 1 -0.4
v -0.5 1 -0.5
v 0.5 1 -0.5

# faces
f 3/1/1 2/1/1 1/1/1
f 4/1/1 2/1/1 3/1/1
f 5/1/1 2/1/1 4/1/1
f 6/1/1 2/1/1 5/1/1
f 7/1/1 2/1/1 6/1/1
f 8/1/1 2/1/1 7/1/1
f 9/1/1 2/1/1 8/1/1
f 10/1/1 2/1/1 9/1/1
f 11/1/1 2/1/1 10/1/1
f 12/3/1 4/3/1 3/3/1
f 12/1/1 5/1/1 4/1/1
f 13/1/1 5/1/1 12/1/1
f 14/3/1 6/3/1 5/3/1
f 14/1/1 5/1/1 13/1/1
f 15/1/1 7/1/1 6/1/1
f 15/3/1 6/3/1 14/3/1
f 16/3/1 8/3/1 7/3/1
f 16/1/1 7/1/1 15/1/1
f 17/4/1 9/4/1 8/4/1
f 17/1/1 10/1/1 9/1/1
f 18/3/1 11/3/1 10/3/1
f 18/1/1 10/1/1 17/1/1
f 19/3/1 13/3/1 12/3/1
f 19/4/1 14/4/1 13/4/1
f 19/4/1 15/4/1 14/4/1
f 20/3/1 16/3/1 15/3/1
f 20/4/1 15/4/1 19/4/1
f 21/4/1 17/4/1 8/4/1
f 21/3/1 16/3/1 20/3/1
f 21/3/1 8/3/1 16/3/1
f 22/3/1 18/3/1 17/3/1
f 22/4/1 17/4/1 21/4/1
f 23/3/1 18/3/1 22/3/1
f 24/3/1 11/3/1 18/3/1
f 24/3/1 18/3/1 23/3/1
f 25/3/1 20/3/1 19/3/1
f 25/3/1 23/3/1 22/3/1
f 25/3/1 21/3/1 20/3/1
f 25/3/1 22/3/1 21/3/1
f 25/3/1 19/3/1 12/3/1
f 25/3/1 12/3/1 3/3/1
f 26/4/1 24/4/1 23/4/1
f 26/3/1 23/3/1 25/3/1
f 27/3/1 11/3/1 24/3/1
f 27/4/1 24/4/1 26/4/1
f 28/3/1 11/3/1 27/3/1
f 29/1/2 30/1/2 31/1/2
f 31/1/2 30/1/2 32/1/2
f 32/1/2 30/1/2 33/1/2
f 33/1/2 30/1/2 34/1/2
f 34/1/2 30/1/2 35/1/2
f 35/1/2 30/1/2 36/1/2
f 31/3/2 32/3/2 37/3/2
f 32/1/2 33/1/2 38/1/2
f 37/3/2 32/3/2 38/3/2
f 33/3/2 34/3/2 39/3/2
f 38/1/2 33/1/2 39/1/2
f 34/1/2 35/1/2 40/1/2
f 39/3/2 34/3/2 40/3/2
f 40/1/2 35/1/2 41/1/2
f 35/4/2 36/4/2 42/4/2
f 41/1/2 35/1/2 42/1/2
f 38/3/2 39/3/2 43/3/2
f 40/1/2 41/1/2 44/1/2
f 43/3/2 39/3/2 44/3/2
f 39/1/2 40/1/2 44/1/2
f 41/3/2 42/3/2 45/3/2
f 44/1/2 41/1/2 45/1/2
f 42/4/2 36/4/2 46/4/2
f 45/3/2 42/3/2 46/3/2
f 36/1/2 30/1/2 47/1/2
f 46/4/2 36/4/2 47/4/2
f 47/1/2 30/1/2 48/1/2
f 48/1/2 30/1/2 49/1/2
f 37/4/2 38/4/2 50/4/2
f 38/3/2 43/3/2 51/3/2
f 50/4/2 38/4/2 51/4/2
f 43/2/2 44/2/2 52/2/2
f 51/3/2 43/3/2 52/3/2
f 45/3/2 46/3/2 53/3/2
f 52/2/2 44/2/2 53/2/2
f 44/3/2 45/3/2 53/3/2
f 46/3/2 47/3/2 53/3/2
f 47/3/2 48/3/2 53/3/2
f 53/3/2 48/3/2 54/3/2
f 54/3/2 48/3/2 55/3/2
f 48/4/2 49/4/2 56/4/2
f 55/3/2 48/3/2 56/3/2
f 56/4/2 49/4/2 57/4/2
f 51/3/2 52/3/2 58/3/2
f 50/3/2 51/3/2 58/3/2
f 52/3/2 53/3/2 58/3/2
f 53/3/2 54/3/2 58/3/2
f 54/2/2 55/2/2 59/2/2
f 58/3/2 54/3/2 59/3/2
f 56/3/2 57/3/2 60/3/2
f 59/2/2 55/2/2 60/2/2
f 55/3/2 56/3/2 60/3/2
f 60/3/2 57/3/2 61/3/2
f 65/1/3 63/1/3 62/1/3
f 65/3/3 64/3/3 63/3/3
f 66/3/3 64/3/3 65/3/3
f 67/3/3 64/3/3 66/3/3
f 68/3/3 64/3/3 67/3/3
f 69/1/3 65/1/3 62/1/3
f 69/1/3 66/1/3 65/1/3
f 70/3/3 67/3/3 66/3/3
f 70/1/3 66/1/3 69/1/3
f 71/4/3 68/4/3 67/4/3
f 71/3/3 67/3/3 70/3/3
f 72/4/3 68/4/3 71/4/3
f 73/3/3 70/3/3 69/3/3
f 73/1/3 69/1/3 62/1/3
f 74/4/3 71/4/3 70/4/3
f 74/3/3 70/3/3 73/3/3
f 75/3/3 72/3/3 71/3/3
f 75/4/3 71/4/3 74/4/3
f 76/1/3 74/1/3 73/1/3
f 76/3/3 75/3/3 74/3/3
f 77/3/3 72/3/3 75/3/3
f 77/3/3 75/3/3 76/3/3
f 78/1/3 76/1/3 73/1/3
f 78/1/3 73/1/3 62/1/3
f 78/1/3 77/1/3 76/1/3
f 79/3/3 72/3/3 77/3/3
f 79/1/3 77/1/3 78/1/3
f 80/1/3 78/1/3 62/1/3
f 80/3/3 79/3/3 78/3/3
f 81/3/3 79/3/3 80/3/3
f 82/3/3 72/3/3 79/3/3
f 82/3/3 79/3/3 81/3/3
f 83/1/3 81/1/3 80/1/3
f 83/1/3 80/1/3 62/1/3
f 84/4/3 82/4/3 81/4/3
f 84/1/3 81/1/3 83/1/3
f 85/1/3 83/1/3 62/1/3
f 86/3/3 84/3/3 83/3/3
f 86/1/3 83/1/3 85/1/3
f 87/4/3 82/4/3 84/4/3
f 87/3/3 84/3/3 86/3/3
f 88/3/3 72/3/3 82/3/3
f 88/4/3 82/4/3 87/4/3
f 89/3/3 87/3/3 86/3/3
f 89/3/3 86/3/3 85/3/3
f 89/3/3 88/3/3 87/3/3
f 90/3/3 72/3/3 88/3/3
f 90/3/3 88/3/3 89/3/3
f 91/1/3 85/1/3 62/1/3
f 92/3/3 89/3/3 85/3/3
f 92/1/3 85/1/3 91/1/3
f 93/4/3 90/4/3 89/4/3
f 93/3/3 89/3/3 92/3/3
f 94/3/3 72/3/3 90/3/3
f 94/4/3 90/4/3 93/4/3
f 95/3/3 72/3/3 94/3/3
f 97/3/4 98/3/4 99/3/4
f 99/3/4 98/3/4 100/3/4
f 96/1/4 97/1/4 101/1/4
f 97/3/4 99/3/4 101/3/4
f 99/4/4 100/4/4 102/4/4
f 101/3/4 99/3/4 102/3/4
f 101/1/4 102/1/4 103/1/4
f 102/4/4 100/4/4 103/4/4
f 100/3/4 98/3/4 104/3/4
f 103/4/4 100/4/4 104/4/4
f 101/1/4 103/1/4 105/1/4
f 96/1/4 101/1/4 105/1/4
f 103/3/4 104/3/4 106/3/4
f 105/1/4 103/1/4 106/1/4
f 96/1/4 105/1/4 107/1/4
f 105/3/4 106/3/4 107/3/4
f 106/3/4 104/3/4 108/3/4
f 107/3/4 106/3/4 108/3/4
f 96/1/4 107/1/4 109/1/4
f 107/4/4 108/4/4 109/4/4
f 108/3/4 104/3/4 110/3/4
f 109/4/4 108/4/4 110/4/4
f 104/3/4 98/3/4 111/3/4
f 110/3/4 104/3/4 111/3/4
f 109/1/4 110/1/4 112/1/4
f 96/1/4 109/1/4 112/1/4
f 110/4/4 111/4/4 113/4/4
f 112/1/4 110/1/4 113/1/4
f 111/3/4 98/3/4 114/3/4
f 113/4/4 111/4/4 114/4/4
f 112/3/4 113/3/4 115/3/4
f 96/1/4 112/1/4 115/1/4
f 113/3/4 114/3/4 115/3/4
f 115/3/4 114/3/4 116/3/4
f 115/1/4 116/1/4 117/1/4
f 116/3/4 114/3/4 117/3/4
f 117/3/4 114/3/4 118/3/4
f 114/3/4 98/3/4 119/3/4
f 118/3/4 114/3/4 119/3/4
f 117/1/4 118/1/4 120/1/4
f 96/1/4 115/1/4 120/1/4
f 115/1/4 117/1/4 120/1/4
f 118/4/4 119/4/4 121/4/4
f 120/1/4 118/1/4 121/1/4
f 119/3/4 98/3/4 122/3/4
f 121/4/4 119/4/4 122/4/4
f 122/3/4 98/3/4 123/3/4
f 126/1/5 125/1/5 124/1/5
f 127/1/5 125/1/5 126/1/5
f 129/4/6 130/4/6 132/4/6
f 130/3/6 131/3/6 132/3/6
f 132/3/6 131/3/6 133/3/6
f 133/3/6 131/3/6 134/3/6
f 134/3/6 131/3/6 135/3/6
f 128/3/6 129/3/6 136/3/6
f 129/4/6 132/4/6 136/4/6
f 132/4/6 133/4/6 136/4/6
f 133/3/6 134/3/6 137/3/6
f 136/4/6 133/4/6 137/4/6
f 137/3/6 134/3/6 138/3/6
f 138/3/6 134/3/6 139/3/6
f 128/3/6 136/3/6 140/3/6
f 136/3/6 137/3/6 140/3/6
f 137/3/6 138/3/6 140/3/6
f 140/3/6 138/3/6 141/3/6
f 141/3/6 138/3/6 142/3/6
f 138/2/6 139/2/6 143/2/6
f 142/3/6 138/3/6 143/3/6
f 141/3/6 142/3/6 144/3/6
f 142/4/6 143/4/6 144/4/6
f 143/2/6 139/2/6 145/2/6
f 144/4/6 143/4/6 145/4/6
f 134/4/6 135/4/6 146/4/6
f 139/3/6 134/3/6 146/3/6
f 135/3/6 131/3/6 147/3/6
f 146/4/6 135/4/6 147/4/6
f 128/3/6 140/3/6 148/3/6
f 140/2/6 141/2/6 148/2/6
f 144/3/6 145/3/6 149/3/6
f 148/2/6 141/2/6 149/2/6
f 141/3/6 144/3/6 149/3/6
f 149/3/6 145/3/6 150/3/6
f 145/2/6 139/2/6 151/2/6
f 150/3/6 145/3/6 151/3/6
f 139/3/6 146/3/6 152/3/6
f 151/2/6 139/2/6 152/2/6
f 146/3/6 147/3/6 152/3/6
f 152/3/6 147/3/6 153/3/6
f 147/3/6 131/3/6 154/3/6
f 153/3/6 147/3/6 154/3/6
f 154/3/6 131/3/6 155/3/6
f 149/3/6 150/3/6 156/3/6
f 148/3/6 149/3/6 156/3/6
f 156/3/6 150/3/6 157/3/6
f 150/2/6 151/2/6 158/2/6
f 157/3/6 150/3/6 158/3/6
f 151/3/6 152/3/6 159/3/6
f 158/2/6 151/2/6 159/2/6
f 152/4/6 153/4/6 160/4/6
f 159/3/6 152/3/6 160/3/6
f 153/3/6 154/3/6 161/3/6
f 160/4/6 153/4/6 161/4/6
f 158/3/6 159/3/6 162/3/6
f 157/3/6 158/3/6 162/3/6
f 159/4/6 160/4/6 162/4/6
f 160/3/6 161/3/6 163/3/6
f 162/4/6 160/4/6 163/4/6
f 161/3/6 154/3/6 164/3/6
f 163/3/6 161/3/6 164/3/6
f 154/2/6 155/2/6 165/2/6
f 164/3/6 154/3/6 165/3/6
f 165/2/6 155/2/6 166/2/6
f 128/3/6 148/3/6 167/3/6
f 148/3/6 156/3/6 167/3/6
f 167/3/6 156/3/6 168/3/6
f 163/3/6 164/3/6 169/3/6
f 162/3/6 163/3/6 169/3/6
f 157/3/6 162/3/6 169/3/6
f 164/2/6 165/2/6 170/2/6
f 169/3/6 164/3/6 170/3/6
f 165/3/6 166/3/6 171/3/6
f 170/2/6 165/2/6 171/2/6
f 167/4/6 168/4/6 172/4/6
f 168/3/6 156/3/6 173/3/6
f 172/4/6 168/4/6 173/4/6
f 156/4/6 157/4/6 174/4/6
f 173/3/6 156/3/6 174/3/6
f 157/3/6 169/3/6 175/3/6
f 174/4/6 157/4/6 175/4/6
f 169/2/6 170/2/6 176/2/6
f 175/3/6 169/3/6 176/3/6
f 170/3/6 171/3/6 177/3/6
f 176/2/6 170/2/6 177/2/6
f 172/3/6 173/3/6 178/3/6
f 174/3/6 175/3/6 178/3/6
f 176/3/6 177/3/6 178/3/6
f 175/3/6 176/3/6 178/3/6
f 173/3/6 174/3/6 178/3/6
f 177/3/6 171/3/6 179/3/6
f 178/3/6 177/3/6 179/3/6
f 171/3/6 166/3/6 179/3/6
